<?xml version="1.0" encoding="utf-8"?>
<!-- Generator: Adobe Illustrator 18.1.1, SVG Export Plug-In . SVG Version: 6.00 Build 0)  -->
<svg version="1.1" id="Layer_1" xmlns="http://www.w3.org/2000/svg" xmlns:xlink="http://www.w3.org/1999/xlink" x="0px" y="0px"
	 viewBox="0 0 1000 1000" enable-background="new 0 0 1000 1000" xml:space="preserve">
<g>
	<g>
		<g>
			<path fill="none" stroke="#D8AE4C" stroke-width="2.8237" stroke-miterlimit="10" d="M482.1,398.7c-13.8-14.7-36.5-14.9-51.7-1.5
				c0,0,0,0,0,0c0,0,0,0,0,0s0,0,0,0c0,0,0,0,0,0c-15.2,13.4-15.4,37-1.6,51.7c10.7,11.3,26.9,18.1,42.6,24.7
				c14.4,6,29.3,12.3,39.1,21.8c-0.6,2-0.2,4.2,1.3,5.8l31.6,33.5c1.7,1.8,4.4,2.3,6.6,1.4c0.4,1.2,1,2.2,1.9,3.2
				c3.4,3.6,9.1,3.8,12.7,0.4c3.6-3.4,3.8-9.1,0.4-12.7c-0.9-0.9-1.9-1.7-3.1-2.1c1-2.2,0.7-4.8-1-6.7l-31.6-33.5
				c-1.5-1.6-3.7-2.2-5.7-1.7c-9-10.4-14.3-25.6-19.5-40.3C498.6,426.6,492.8,410,482.1,398.7z M525.2,488.6l31.6,33.5
				c0.1,0.1,0.1,0.2,0,0.3l-8.9,8.4c-0.1,0.1-0.2,0.1-0.3,0L516,497.3c-0.1-0.1-0.1-0.2,0-0.3l8.9-8.4
				C525,488.5,525.2,488.5,525.2,488.6z M515.8,490.4c-5.4-4.6-30.9-31.7-30.9-31.7c-11.8-9.8-23.9-19.9-34.1-30.7
				c-5.7-6-10.5-12.3-13.5-17.8c-3.2-5.7-3.3-8.4-3.1-9c0.6-0.2,3.3,0.1,8.8,3.6c5.2,3.3,11.2,8.5,16.9,14.5
				c10.1,10.8,19.5,23.5,28.6,35.8c0,0,26.3,31.6,28,34.4 M514.4,491.7c-3.2-3.8-35.2-28.3-35.2-28.3c-13.5-8.1-27.4-16.4-37.3-27
				c-5.8-6.2-9.7-13.4-11.1-20.3c-0.4-2.2-0.6-4.3-0.4-6.2c0-0.2,0-0.4,0-0.6c0,0,0.4-4.3,2.4-7.3 M442.7,398
				c2.1-0.1,4.3,0.2,6.7,0.8c6.8,1.7,13.7,6.1,19.6,12.2c10,10.6,17.5,25,24.7,38.9c0,0,18.6,29.8,24.9,38 M436.5,398.7
				 M560.8,535.5c-1.3,1.2-3.4,1.2-4.6-0.1c-1.2-1.3-1.2-3.4,0.1-4.6s3.4-1.2,4.6,0.1S562.1,534.3,560.8,535.5z M512.9,493.2
				c-6.3-5.7-39.3-24.9-39.3-24.9c-15.1-6.3-30.8-12.9-40.6-23.3c-7.2-7.6-9.7-17.9-7.7-27.4c6.2-24.4,25.8-24.3,25.8-24.3
				c9.6-1.4,19.8,1.8,26.9,9.4c9.8,10.4,15.5,26.5,20.9,41.9c0,0,11.4,26.6,22.1,40.6"/>
			<line fill="none" stroke="#D8AE4C" stroke-width="2.8237" stroke-miterlimit="10" x1="523.7" y1="483" x2="510.5" y2="495.4"/>
			<path fill="none" stroke="#D8AE4C" stroke-width="2.8237" stroke-miterlimit="10" d="M435.2,399.8c3.1-1.8,7.8-1.8,7.8-1.8"/>
		</g>
	</g>
	<g>
		<g>
			<g>
				
					<path fill="none" stroke="#D8AE4C" stroke-width="1.13" stroke-linecap="round" stroke-linejoin="round" stroke-miterlimit="10" d="
					M369.4,424.8l1.3,5.5c0.5,2.2,1.9,4.1,3.8,5.2l2.5,1.5l-2.5,1.5c-1.9,1.1-3.3,3-3.8,5.2l-1.3,5.5l-1.3-5.5
					c-0.5-2.2-1.9-4.1-3.8-5.2l-2.5-1.5l2.5-1.5c1.9-1.1,3.3-3,3.8-5.2L369.4,424.8z"/>
			</g>
			<g>
				
					<line fill="none" stroke="#D8AE4C" stroke-width="1.0935" stroke-linecap="round" stroke-linejoin="round" stroke-miterlimit="10" x1="314" y1="478" x2="314" y2="494.4"/>
				
					<line fill="none" stroke="#D8AE4C" stroke-width="1.0935" stroke-linecap="round" stroke-linejoin="round" stroke-miterlimit="10" x1="335.3" y1="499.3" x2="320" y2="499.3"/>
				
					<line fill="none" stroke="#D8AE4C" stroke-width="1.0935" stroke-linecap="round" stroke-linejoin="round" stroke-miterlimit="10" x1="314" y1="520.7" x2="314" y2="505.4"/>
				
					<line fill="none" stroke="#D8AE4C" stroke-width="1.0935" stroke-linecap="round" stroke-linejoin="round" stroke-miterlimit="10" x1="292.6" y1="499.3" x2="308" y2="499.3"/>
				
					<line fill="none" stroke="#D8AE4C" stroke-width="1.13" stroke-linecap="round" stroke-linejoin="round" stroke-miterlimit="10" x1="323.6" y1="489.8" x2="318" y2="495.5"/>
				
					<line fill="none" stroke="#D8AE4C" stroke-width="1.13" stroke-linecap="round" stroke-linejoin="round" stroke-miterlimit="10" x1="323.6" y1="509.2" x2="318" y2="503.6"/>
				
					<line fill="none" stroke="#D8AE4C" stroke-width="1.13" stroke-linecap="round" stroke-linejoin="round" stroke-miterlimit="10" x1="304.3" y1="509.2" x2="309.9" y2="503.6"/>
				
					<line fill="none" stroke="#D8AE4C" stroke-width="1.13" stroke-linecap="round" stroke-linejoin="round" stroke-miterlimit="10" x1="304.3" y1="489.8" x2="309.9" y2="495.5"/>
				
					<circle fill="none" stroke="#D8AE4C" stroke-width="1.13" stroke-linecap="round" stroke-linejoin="round" stroke-miterlimit="10" cx="313.8" cy="499.5" r="2.8"/>
			</g>
			<g>
				
					<line fill="none" stroke="#D8AE4C" stroke-width="1.0935" stroke-linecap="round" stroke-linejoin="round" stroke-miterlimit="10" x1="417.4" y1="491.7" x2="417.4" y2="508.1"/>
				
					<line fill="none" stroke="#D8AE4C" stroke-width="1.0935" stroke-linecap="round" stroke-linejoin="round" stroke-miterlimit="10" x1="438.8" y1="513" x2="423.5" y2="513"/>
				
					<line fill="none" stroke="#D8AE4C" stroke-width="1.0935" stroke-linecap="round" stroke-linejoin="round" stroke-miterlimit="10" x1="417.4" y1="534.3" x2="417.4" y2="519"/>
				
					<line fill="none" stroke="#D8AE4C" stroke-width="1.0935" stroke-linecap="round" stroke-linejoin="round" stroke-miterlimit="10" x1="396.1" y1="513" x2="411.4" y2="513"/>
				
					<line fill="none" stroke="#D8AE4C" stroke-width="1.13" stroke-linecap="round" stroke-linejoin="round" stroke-miterlimit="10" x1="427.1" y1="503.5" x2="421.5" y2="509.1"/>
				
					<line fill="none" stroke="#D8AE4C" stroke-width="1.13" stroke-linecap="round" stroke-linejoin="round" stroke-miterlimit="10" x1="427.1" y1="522.8" x2="421.5" y2="517.2"/>
				
					<line fill="none" stroke="#D8AE4C" stroke-width="1.13" stroke-linecap="round" stroke-linejoin="round" stroke-miterlimit="10" x1="407.8" y1="522.8" x2="413.4" y2="517.2"/>
				
					<line fill="none" stroke="#D8AE4C" stroke-width="1.13" stroke-linecap="round" stroke-linejoin="round" stroke-miterlimit="10" x1="407.8" y1="503.5" x2="413.4" y2="509.1"/>
				
					<circle fill="none" stroke="#D8AE4C" stroke-width="1.13" stroke-linecap="round" stroke-linejoin="round" stroke-miterlimit="10" cx="417.2" cy="513.2" r="2.8"/>
			</g>
		</g>
		
			<path fill="none" stroke="#D8AE4C" stroke-width="1.13" stroke-linecap="round" stroke-linejoin="round" stroke-miterlimit="10" d="
			M603.9,493.2l1.3,5.5c0.5,2.2,1.9,4.1,3.8,5.2l2.5,1.5l-2.5,1.5c-1.9,1.1-3.3,3-3.8,5.2l-1.3,5.5l-1.3-5.5
			c-0.5-2.2-1.9-4.1-3.8-5.2l-2.5-1.5l2.5-1.5c1.9-1.1,3.3-3,3.8-5.2L603.9,493.2z"/>
		
			<path fill="none" stroke="#D8AE4C" stroke-width="1.13" stroke-linecap="round" stroke-linejoin="round" stroke-miterlimit="10" d="
			M543.9,387.6l1.3,5.5c0.5,2.2,1.9,4.1,3.8,5.2l2.5,1.5l-2.5,1.5c-1.9,1.1-3.3,3-3.8,5.2l-1.3,5.5l-1.3-5.5
			c-0.5-2.2-1.9-4.1-3.8-5.2l-2.5-1.5l2.5-1.5c1.9-1.1,3.3-3,3.8-5.2L543.9,387.6z"/>
		<g>
			
				<line fill="none" stroke="#D8AE4C" stroke-width="1.0935" stroke-linecap="round" stroke-linejoin="round" stroke-miterlimit="10" x1="611" y1="417.8" x2="611" y2="432"/>
			
				<line fill="none" stroke="#D8AE4C" stroke-width="1.0935" stroke-linecap="round" stroke-linejoin="round" stroke-miterlimit="10" x1="630.2" y1="436.9" x2="615.9" y2="436.9"/>
			
				<line fill="none" stroke="#D8AE4C" stroke-width="1.0935" stroke-linecap="round" stroke-linejoin="round" stroke-miterlimit="10" x1="611" y1="456.1" x2="611" y2="441.9"/>
			
				<line fill="none" stroke="#D8AE4C" stroke-width="1.0935" stroke-linecap="round" stroke-linejoin="round" stroke-miterlimit="10" x1="593" y1="436.9" x2="606.1" y2="436.9"/>
			
				<line fill="none" stroke="#D8AE4C" stroke-width="1.13" stroke-linecap="round" stroke-linejoin="round" stroke-miterlimit="10" x1="619.6" y1="428.2" x2="614.7" y2="433.2"/>
			
				<line fill="none" stroke="#D8AE4C" stroke-width="1.13" stroke-linecap="round" stroke-linejoin="round" stroke-miterlimit="10" x1="619.6" y1="445.2" x2="614.7" y2="440.2"/>
			
				<line fill="none" stroke="#D8AE4C" stroke-width="1.13" stroke-linecap="round" stroke-linejoin="round" stroke-miterlimit="10" x1="602.7" y1="445.2" x2="607.6" y2="440.2"/>
			
				<line fill="none" stroke="#D8AE4C" stroke-width="1.13" stroke-linecap="round" stroke-linejoin="round" stroke-miterlimit="10" x1="602.7" y1="428.2" x2="607.6" y2="433.2"/>
			
				<circle fill="none" stroke="#D8AE4C" stroke-width="1.13" stroke-linecap="round" stroke-linejoin="round" stroke-miterlimit="10" cx="611" cy="436.5" r="1.8"/>
		</g>
	</g>
	<g>
		<path fill="#D8AE4C" d="M187.7,639c-5.9,11.6-16.8,15.7-28.8,17.4c1.4,5.1,2.2,10.3,2.2,15.7c-0.2,18.1-12.7,30.1-30.2,30.1
			c-13.6-0.2-26.3-8.2-26.1-23c0-8.6,4.8-16,12.7-19.2c10.5-4.4,26.1-3.6,37.8-5.1c-6.7-21.5-23.1-40.9-23.1-63.7
			c0-13.1,7.4-26.8,22.2-26.8c12.7,0,20.1,10.9,20.1,23c0,4.6-0.9,10-3.3,16c-0.6,0.9-2.1,0.3-1.7-0.6c2.4-5.9,3.3-10.9,3.3-15.4
			c0-10.9-6.7-21.2-18.4-21.2c-13.5,0-19,12.8-19,24.4c-0.3,23.1,16.3,42.3,23.1,64c11.7-1.7,22.2-5.5,27.7-16.5
			C186.7,637.5,188.2,638.1,187.7,639z M158.1,671.8c-0.2-5.2-1-10.1-2.2-15c-11.6,1.4-27.6,0.6-37.8,4.9c-7.1,3-11.4,9.8-11.6,17.6
			c0,13.8,11.7,21.1,24.2,21.2C147.6,700.5,158.1,688.6,158.1,671.8z"/>
		<path fill="#D8AE4C" d="M188.3,639c-1,14.3,1.4,24.9,8.2,24.9c10.8,0,20-18.1,24.5-26.4c0.5-0.6,1.9-0.2,1.6,1
			c-5.1,9-14.4,27.2-26.1,27.2c-26.1,0.2-2.4-99.9,21.4-99.3c6,0.2,7.8,6,7.6,11.1C225.1,594.2,199.6,625.7,188.3,639z M188.5,636
			c11.6-13.6,34.8-43.1,35.3-58.6c0.2-4.1-1.1-9.2-6-9.3C204.5,567.8,190.9,607.7,188.5,636z"/>
		<path fill="#D8AE4C" d="M256.7,639.2c-3.3,6.5-9.2,12.2-16.9,12.4c-0.8,0-1.6-0.2-2.4-0.3c-2.1,3.8-5.2,6.7-9.7,6.7
			c-10.9,0-12.8-16.6-4.4-22.3c0.8-0.5,1.6,0.5,1.3,1.3c-5.1,4.6-4.8,19.2,3.3,19.3c3.5,0,5.7-2.7,7-5.5
			c-10.6-4.3-13.6-24.4-3.5-24.4c6.5,0,8.7,7.4,8.7,12.8c0.2,3.6-0.5,7.3-1.9,10.6h1.6c7,0,12.4-5.4,15.4-11.2
			C255.8,637.6,257.1,638.1,256.7,639.2z M237.1,639.7c0-3.6-1.1-11.6-6-11.6c-7-0.2-4.8,17.1,4.4,20.7
			C236.6,646,237.1,642.7,237.1,639.7z"/>
		<path fill="#D8AE4C" d="M301.2,638.4c-4.1,7.3-17.7,32.6-26.8,32.5c-6.5-0.2-7.9-13-6.2-29.6c-2.5,7.1-5.9,13.8-9.8,13.8
			c-9.3-0.3-3.6-29.6,6.2-29.3c1.7,0,3.5,1.3,5.1,4.1c1.7-10.6,12.8-62.1,27.4-61.9c4.3,0,5.7,4.3,5.7,7.9
			c0.2,16.6-21.5,48.3-31.2,63c-2.2,16.8-1.7,30.1,3,30.2c7.6,0,21.4-25.2,25-31.7C300.3,636.8,301.4,637.1,301.2,638.4z
			 M269.1,632.4c-1.6-3.5-3.2-4.9-4.4-4.9c-6.3,0-10.8,25.8-6.2,25.7C262.8,653.1,266.9,640.5,269.1,632.4z M272.1,634.9
			c10.3-15.5,29-44,29-59.1c0-2.5-0.8-6.2-4-6.2C284,569.8,273.5,625,272.1,634.9z"/>
		<path fill="#D8AE4C" d="M335.3,639c-3.8,7.4-13.6,22.3-23,22.3c-6.2,0-10.9-4.9-12-10.3l-0.8,10.1c-0.5,1-1.6,0.8-1.7-0.2
			c-1-16.2,3.5-93.1,26.6-93.1c5.4,0,6.7,5.7,6.7,10.1c-0.5,16.9-19.8,44.8-29.8,60c-0.2,2.5-0.3,4.9-0.6,7.3
			c2.7-5.7,12.2-10.9,16.6-12.7c1.4-0.6,2.2,1.4,1,2.2c-4.4,1.7-16.2,7.8-16.5,13.1c-0.2,4.9,5.5,11.4,10.6,11.6
			c8.4,0,17.9-14.7,21.4-21.4C334.3,637.6,335.6,638.1,335.3,639z M301.7,634.3c10.1-15.5,27.1-40.9,27.6-56.2
			c0-3.3-0.6-8.4-4.9-8.4C310.4,569.7,304.4,606.7,301.7,634.3z"/>
		<path fill="#D8AE4C" d="M362.8,638.1c-3.6,7-13.6,22.6-22.3,22.5c-8.9-0.2-7.8-17.1-6.8-23.8c0.3-1.4,3.3-1.3,3,0.6
			c-0.8,5.7-2.5,21.1,3.8,21.4c7.6,0.2,17.6-15.5,20.7-21.5C361.9,636.7,363.2,637.3,362.8,638.1z M334,623.5c0-1,0.8-1.6,1.6-1.6
			c0.8,0,1.6,0.8,1.4,1.6c0,0.9-0.6,1.6-1.6,1.6C334.6,625,334,624.2,334,623.5z"/>
		<path fill="#D8AE4C" d="M481.6,639c-5.9,11.6-16.8,15.7-28.8,17.4c1.4,5.1,2.2,10.3,2.2,15.7c-0.2,18.1-12.7,30.1-30.2,30.1
			c-13.6-0.2-26.3-8.2-26.1-23c0-8.6,4.8-16,12.7-19.2c10.5-4.4,26.1-3.6,37.8-5.1c-6.7-21.5-23.1-40.9-23.1-63.7
			c0-13.1,7.4-26.8,22.2-26.8c12.7,0,20.1,10.9,20.1,23c0,4.6-1,10-3.3,16c-0.4,0.6-1,0.6-1.4,0.3c-0.3-0.2-0.5-0.5-0.3-0.9
			c2.4-5.9,3.3-10.9,3.3-15.4c0-10.9-6.7-21.2-18.4-21.2c-13.5,0-19,12.8-19,24.4c-0.3,23.1,16.3,42.3,23.1,64
			c11.7-1.7,22.2-5.5,27.7-16.5C480.7,637.5,482.1,638.1,481.6,639z M452,671.8c-0.2-5.2-0.9-10.1-2.2-15
			c-11.6,1.4-27.6,0.6-37.8,4.9c-7.1,3-11.4,9.8-11.6,17.6c0,13.8,11.7,21.1,24.2,21.2C441.5,700.5,452,688.6,452,671.8z"/>
		<path fill="#D8AE4C" d="M551.1,638.9c-3,5.5-11.1,17.7-18.1,17.6c-4.1,0-6.2-4.4-7-7.9c-3.8,8.1-10.9,20.7-18.5,20.7
			c-9.3,0-7.9-16.8-5.9-29.5c-3.6,8.9-9,18.5-15.4,18.4c-8.4-0.3-7.8-13.8-6.7-21.2c0.2-1.6,3.3-1.4,3,0.5
			c-1.1,6.8-2.2,18.8,3.6,18.8c8.4,0.2,16-22.5,17.7-29.1c0.3-1.6,3.2-1.1,3,0.3c-1.1,6.3-9.3,40.1,0.5,40.1
			c7.3,0,15-15.4,18.1-22.2c-0.6-3.6-0.9-17.7,4.6-17.6c1.1,0,2.1,1.4,2.1,2.9c0,4.4-3.8,12.7-4.4,14.1c0.3,3,1.4,9.8,5.4,9.8
			c5.9,0.3,13.8-11.7,16.3-16.5C550,637.6,551.1,638.3,551.1,638.9z M527.5,640.8c0.3-0.5,3-7.4,3-10.1c0-0.6,0-1.1-0.5-1.1
			C527.8,629.7,527.5,639.2,527.5,640.8z"/>
		<path fill="#D8AE4C" d="M578.2,638.1c-3.6,7-13.6,22.6-22.3,22.5c-8.9-0.2-7.8-17.1-6.8-23.8c0.3-1.4,3.3-1.3,3,0.6
			c-0.8,5.7-2.5,21.1,3.8,21.4c7.6,0.2,17.6-15.5,20.7-21.5C577.3,636.7,578.5,637.3,578.2,638.1z M549.4,623.5c0-1,0.8-1.6,1.6-1.6
			c0.8,0,1.6,0.8,1.4,1.6c0,0.9-0.6,1.6-1.6,1.6C550,625,549.4,624.2,549.4,623.5z"/>
		<path fill="#D8AE4C" d="M618.7,638.3c-4.3,8.1-13.6,25-22.3,25c-8.6,0-8.9-11.1-7.6-21.1c-2.5,6.7-5.7,12.8-9.5,12.8
			c-9.3-0.3-3.6-29.6,6.2-29.3c1.7,0,3.5,1.3,5.1,4.1l0.5-1.3c0.2-1.6,3.2-0.9,3,0.6c-1.6,7.9-7,32.3,2.4,32.3
			c7.6,0,16.8-16.8,20.7-24.2C617.9,636.7,619.1,637.3,618.7,638.3z M589.9,632.4c-1.6-3.5-3.2-4.9-4.4-4.9
			c-6.3,0-10.8,25.8-6.2,25.7C583.6,653.1,587.7,640.5,589.9,632.4z"/>
		<path fill="#D8AE4C" d="M656.6,638.9c-5.1,9.2-22.6,42.6-32.9,42.4c-15-0.3-5.5-56.2,0.6-87.1l-25.5,1.9c-0.9,0.2-1.1-1.6-0.2-1.7
			l26-2.1l3.5-16.8c0.2-0.8,1.7-0.6,1.7,0.2c-0.2,2.5-1.1,8.6-2.5,16.5l16.6-1.4c1.1,0,1.1,1.7,0,1.9l-16.9,1.3
			c-5.2,30.4-14.7,85.4-3.2,85.5c9,0.3,26.6-33.1,31.2-41.3C655.6,637.5,656.9,637.9,656.6,638.9z"/>
		<path fill="#D8AE4C" d="M764,639.2c-8.7,15.8-24.7,45.6-45.6,45.6c-42.8,0-28.3-122.7,17.4-122.7c11.7-0.2,19.2,9.3,18.8,20.9
			c-0.2,0.8-1.7,0.8-1.7-0.2c0.3-10.5-6.5-19.2-17.3-19c-41.6,0.3-55.4,118.8-17.4,119.2c20,0.2,35.9-29.6,44.2-44.8
			C763,637.6,764.3,638.3,764,639.2z"/>
		<path fill="#D8AE4C" d="M791.7,638.1c-3.6,7-13.6,22.6-22.3,22.5c-8.9-0.2-7.8-17.1-6.8-23.8c0.3-1.4,3.3-1.3,3,0.6
			c-0.8,5.7-2.5,21.1,3.8,21.4c7.6,0.2,17.6-15.5,20.7-21.5C790.7,636.7,792,637.3,791.7,638.1z M762.8,623.5c0-1,0.8-1.6,1.6-1.6
			c0.8,0,1.6,0.8,1.4,1.6c0,0.9-0.6,1.6-1.6,1.6C763.5,625,762.8,624.2,762.8,623.5z"/>
		<path fill="#D8AE4C" d="M832.2,638.3c-4.3,8.1-13.6,25-22.3,25c-8.6,0-8.9-11.1-7.6-21.1c-2.5,6.7-5.7,12.8-9.5,12.8
			c-9.3-0.3-3.6-29.6,6.2-29.3c1.7,0,3.5,1.3,5.1,4.1l0.5-1.3c0.2-1.6,3.2-0.9,3,0.6c-1.6,7.9-7,32.3,2.4,32.3
			c7.6,0,16.8-16.8,20.7-24.2C831.4,636.7,832.5,637.3,832.2,638.3z M803.4,632.4c-1.6-3.5-3.2-4.9-4.4-4.9
			c-6.3,0-10.8,25.8-6.2,25.7C797.1,653.1,801.2,640.5,803.4,632.4z"/>
		<path fill="#D8AE4C" d="M857.4,638.7c-4,7.9-11.6,12.4-19.2,16c1.7,4.3,3.2,8.7,3.2,13.3c0,7.8-5.9,12.5-13.3,12.5
			c-5.9,0-10.9-3.3-10.9-9.5c0-9.2,10.9-13.5,17.9-16.8c-2.2-6.5-4.8-13-4.8-20.1c0-7.4,3.3-10.1,7.1-10.1c3.3,0,6.3,3.2,5.1,7.6
			c-0.6,1-1.7,0.6-1.7-0.5c1-3.2-1.1-5.4-3.3-5.4c-2.4,0-4.9,2.4-4.9,8.4c0,6.7,2.7,12.8,5.1,18.8c7.3-3.5,14.6-7.8,18.2-15
			C856.3,637.3,857.5,637.8,857.4,638.7z M838.2,668.8c0-4.3-1.1-8.6-2.5-12.8c-6.2,2.9-16.8,7-16.8,15c0,4.9,4.3,7.6,9,7.8
			C833.9,678.8,838.1,674.8,838.2,668.8z"/>
		<path fill="#D8AE4C" d="M895.2,638.9c-5.1,9.2-22.6,42.6-32.9,42.4c-15-0.3-5.5-56.2,0.6-87.1l-25.5,1.9c-0.9,0.2-1.1-1.6-0.2-1.7
			l26-2.1l3.5-16.8c0.2-0.8,1.7-0.6,1.7,0.2c-0.2,2.5-1.1,8.6-2.5,16.5l16.6-1.4c1.1,0,1.1,1.7,0,1.9l-16.9,1.3
			c-5.2,30.4-14.7,85.4-3.2,85.5c9,0.3,26.6-33.1,31.2-41.3C894.3,637.5,895.5,637.9,895.2,638.9z"/>
		<g>
			<path fill="#D8AE4C" d="M464.9,603.6c-2.9,6.1-8.7,7.3-15.3,4.5c-5.8-2.6-8.2-9.4-5.6-15.1c5-11.5,27-17.3,35.6-33.6
				c0.1-0.3,1.1,0.3,1,0.5c-8.6,16.3-29.9,22.7-34.8,33.7c-2.2,5.1-1,11,4.3,13.3c6,2.7,10.4,1.5,13.1-4"/>
		</g>
		<path fill="#D8AE4C" d="M170.5,602.9"/>
		<path fill="#D8AE4C" d="M154.1,586"/>
		<g>
			<path fill="#D8AE4C" d="M163.7,609.8c-0.5,0-1-0.1-1.4-0.2c-2.7-0.6-4.6-2-5.7-4.2c-1.8-3.7-0.8-8.7,0.8-12.2
				c3.1-6.7,8.8-12.9,17.4-18.8c8.1-5.6,16.1-8.8,24.6-9.8c9.8-1.2,20.2-0.3,30,2.6c8.1,2.3,14.2,2,18.3-1.1
				c5.2-3.9,5.1-11.1,5.2-11.1c0.2-0.3,1.3-0.3,1.6,0c0.2,0.2,0,8-5.8,12.4c-4.5,3.4-11.1,3.9-19.7,1.4c-9.6-2.8-19.8-3.7-29.4-2.5
				c-8.2,1-16,4.1-23.8,9.5c-8.4,5.8-13.9,11.7-16.9,18.2c-1.4,3.1-2.4,7.6-0.9,10.8c0.9,1.7,2.4,2.9,4.6,3.4c2.7,0.6,5-1.2,6.8-5.4
				l2,0C169.6,607.8,166,609.8,163.7,609.8z"/>
		</g>
	</g>
	<g>
		<g>
			<g>
				<path fill="#D8AE4C" d="M327.9,400l-0.5,0.5c-1.3-0.1-4.7-0.4-10.4-0.8c-5.7-0.4-9.8-0.7-12.3-1c-1.1-0.1-2.3-0.3-3.5-0.6l0,0.1
					l13.9,12.7c0.3,0.3,0.6,0.4,1,0.4c0.4,0,0.7-0.2,1-0.3c0.3-0.2,0.7-0.5,1.1-0.8c0.5-0.4,0.7-0.6,0.8-0.6l0.2,0.2
					c-1.5,1.4-2.6,2.7-3.4,3.7c-0.3-0.2-0.5-0.3-0.7-0.5L301,400c-0.6-0.5-1.2-0.9-1.8-1.1c-0.9-0.3-1.6-0.1-2.3,0.8l-0.2-0.2
					c0.8-1.4,1.6-2.6,2.7-3.7l20.2,1.6c0.9,0.1,1.7,0.2,2.4,0.3c0.7,0.1,1.4,0.4,2.3,0.7l-12.7-11.7c-0.6-0.5-1.2-0.7-1.8-0.5
					c-0.6,0.2-1.3,0.8-2.1,1.8l-0.3-0.2c0.7-1.3,1.6-2.6,2.8-3.9c0.3,0.1,0.6,0.2,0.8,0.4L327.9,400z"/>
				<path fill="#D8AE4C" d="M328.9,368.5c0.1-0.4,0.2-1,0.2-1.8l0.1-0.1l21,11.2c0.9,0.5,2,0.5,3.2,0l0.2,0.2
					c-0.6,0.4-1.3,0.9-2,1.6c-0.7,0.7-1.4,1.3-1.9,1.9l-0.2,0c0-0.4-0.3-0.8-0.8-1.2c-0.5-0.4-1.4-1-2.7-1.7l-6.5-3.6
					c-2.5,2-4.6,3.7-6.2,5.1l2.7,9.3c0.1,0.5,0.5,0.8,1,0.8c0.5,0,1.3-0.3,2.4-0.8l0.1,0.3c-1.6,1.1-2.8,2.1-3.7,2.9
					c-0.1,0-0.2-0.1-0.4-0.1L328.9,368.5z M333,379c1.3-1,3.1-2.5,5.6-4.6l-8.1-4.5L333,379z"/>
				<path fill="#D8AE4C" d="M354,351.3l8.6,13.1c0.5,0.7,0.8,1.4,1.1,2.1c0.3,0.7,0.4,1.4,0.5,1.9c0.1,0.5,0.1,1.1,0.1,1.6
					c0,0.5-0.1,0.9-0.1,1.1c-0.1,0.3-0.1,0.5-0.2,0.6c-0.2,0.3-0.6,0.7-1.2,1.1c-1.2,0.8-2.6,1.2-4.1,1.3c-0.1-0.9,0.1-1.8,0.6-2.9
					l0.3,0c1.3,0.6,2.3,0.6,3.1,0.1c0.2-0.1,0.3-0.2,0.3-0.4c0.1-0.2,0.1-0.4,0-0.7c-0.1-0.3-0.2-0.6-0.4-1
					c-0.2-0.4-0.4-0.9-0.8-1.5c-0.4-0.6-0.8-1.3-1.2-2c-0.5-0.7-1-1.6-1.7-2.7l-5.2-7.9c-0.8-1.2-1.5-2-2-2.3
					c-0.6-0.3-1.3-0.2-2.1,0.4l-0.4,0.3l-0.2-0.2c1.2-1.4,2.5-2.6,3.8-3.4C353.2,350.2,353.7,350.7,354,351.3z"/>
				<path fill="#D8AE4C" d="M379.3,361l4.8-2.7c0.7-0.4,1.3-0.8,1.7-1.2c0.4-0.4,0.7-0.8,0.9-1.3c0.2-0.5,0.3-1,0.4-1.4
					c0.1-0.5,0.1-1,0.1-1.8l0.5,0l0.6,4.7l-0.1,0.3l-10.4,5.4c-0.4-0.3-0.7-0.7-1-1.3l-8-15.5c-0.7-1.4-1.4-2.2-1.9-2.5
					s-1.4-0.1-2.4,0.5l-0.2-0.2c1.4-1.3,2.8-2.4,4.2-3.1c0.5,0.4,0.9,1,1.2,1.5L379.3,361z"/>
				<path fill="#D8AE4C" d="M403.6,349.8l5.4-2.2c0.7-0.3,1.3-0.6,1.8-1c0.5-0.3,0.8-0.7,1.1-1.2c0.3-0.4,0.5-0.9,0.6-1.4
					c0.1-0.5,0.2-1.1,0.3-1.8l0.5,0l0,4.7l-0.2,0.3l-11.3,4.2c-0.4-0.4-0.6-0.8-0.9-1.4l-6.1-16.5c-0.3-0.7-0.5-1.2-0.7-1.6
					c-0.2-0.4-0.5-0.7-0.7-0.9c-0.3-0.2-0.6-0.3-0.9-0.3c-0.3,0-0.7,0.1-1.2,0.3c-0.1,0-0.1,0.1-0.2,0.1c-0.1,0-0.2,0.1-0.2,0.1
					l-0.2-0.4c2.8-1.6,5.9-3,9.5-4.3c1.8-0.7,3.7-1.3,5.8-1.9l0.2,0.2l0,4.4l-0.6,0c-0.1-0.4-0.1-0.8-0.2-1.2
					c-0.1-0.3-0.2-0.7-0.3-1c-0.1-0.3-0.3-0.6-0.5-0.8c-0.8,0.2-1.6,0.4-2.3,0.7c-0.8,0.2-1.5,0.5-2.3,0.8c-1.4,0.5-2.7,1.1-3.9,1.7
					l3.3,8.8l8.3-3.6l0.2,0.1l-0.3,1.5c-0.5,0.2-0.9,0.3-1.4,0.5c-0.5,0.2-1,0.3-1.5,0.5c-0.8,0.3-1.6,0.6-2.4,1
					c-0.8,0.3-1.7,0.7-2.5,1.1L403.6,349.8z"/>
				<path fill="#D8AE4C" d="M425,321.3l4.4,18.3c0.2,0.9,0.5,1.5,1,1.8c0.4,0.3,1.2,0.4,2.2,0.4l-0.1,0.4c-1.3,0.1-2.3,0.3-3,0.4
					c-0.6,0.2-1.3,0.4-2.1,0.8l-0.1-0.1c0.1-0.4,0.1-1-0.1-1.8l-4-16.9c-0.4-1.5-0.8-2.5-1.2-2.9c-0.5-0.4-1.3-0.4-2.5-0.2l-0.2-0.4
					c2.9-1.2,5.2-1.9,7-2.4c1.2-0.3,2.4-0.5,3.4-0.5c1,0,1.9,0,2.8,0.3c0.9,0.2,1.6,0.7,2.2,1.3c0.6,0.7,1,1.5,1.3,2.6
					c0.3,1.2,0.2,2.3-0.4,3.5c-0.5,1.1-1.3,2.1-2.3,2.9c-1,0.8-2.1,1.3-3.3,1.6c-0.5,0.1-0.8,0.2-1,0.2l-0.1-0.6
					c0.8-0.2,1.5-0.5,2.2-0.9c0.6-0.4,1.2-0.8,1.6-1.4c0.4-0.6,0.7-1.2,0.9-2c0.1-0.8,0.1-1.6-0.1-2.5c-0.4-1.5-1-2.5-1.9-3.2
					c-0.9-0.7-2.2-0.8-3.8-0.5c-1.2,0.3-2.2,0.6-3,0.9C424.8,320.7,424.9,321,425,321.3z"/>
				<path fill="#D8AE4C" d="M452.5,336.8c1.3,0.5,2.5,0.6,3.7,0.5c0.7-0.1,1.4-0.3,1.9-0.6c0.6-0.3,1.1-0.7,1.5-1.2
					c0.4-0.5,0.7-1.1,0.9-1.7c0.2-0.7,0.2-1.4,0.1-2.2c-0.1-0.6-0.2-1.2-0.4-1.6c-0.2-0.5-0.5-0.9-0.9-1.3c-0.4-0.4-1-0.8-1.7-1.2
					c-0.7-0.4-1.7-0.9-2.8-1.5c-1.9-0.9-3.3-1.9-4.2-2.8c-0.9-0.9-1.4-2-1.6-3c-0.1-1,0-2,0.3-2.8c0.3-0.8,0.8-1.6,1.5-2.2
					c0.7-0.6,1.4-1.1,2.3-1.5c0.9-0.4,1.8-0.6,2.7-0.7c1.7-0.2,3.2,0,4.6,0.6c-0.1,1.7-0.4,3.4-1,5.1l-0.5-0.2c0-0.4,0-0.8,0-1.2
					c0-0.4,0-0.7-0.1-1.1c0-0.3-0.1-0.6-0.2-0.9c-0.1-0.3-0.1-0.5-0.2-0.8c-0.9-0.4-1.9-0.6-2.9-0.4c-0.6,0.1-1.2,0.2-1.8,0.5
					c-0.6,0.3-1,0.6-1.4,1c-0.4,0.4-0.7,0.9-0.9,1.5c-0.2,0.6-0.3,1.2-0.2,1.9c0.1,0.5,0.2,0.9,0.4,1.4c0.2,0.4,0.5,0.8,1,1.2
					c0.4,0.4,0.9,0.8,1.5,1.2c0.6,0.4,1.3,0.8,2.1,1.3c0.5,0.3,0.9,0.5,1.4,0.7c0.4,0.2,0.8,0.4,1.2,0.6c0.4,0.2,0.7,0.4,1,0.6
					c0.3,0.2,0.6,0.4,0.9,0.6c1.4,1.1,2.2,2.6,2.4,4.3c0.1,1.1,0.1,2.1-0.2,3c-0.3,0.9-0.8,1.6-1.4,2.2c-0.6,0.6-1.4,1.1-2.3,1.4
					c-0.9,0.4-1.9,0.6-2.9,0.7c-1.9,0.2-3.8,0.1-5.8-0.4c0.1-1.8,0.5-3.5,1-5.1l0.5,0.2c-0.1,0.6,0,1.4,0.1,2.3
					C452.2,336.1,452.3,336.6,452.5,336.8z"/>
				<path fill="#D8AE4C" d="M489.9,335.9l-14.8,0.1c-0.2-0.5-0.3-1-0.3-1.6c0.4-0.5,1-1.3,1.8-2.5c0.8-1.2,1.7-2.7,2.8-4.7
					c1.1-2,2-3.5,2.7-4.7c0.7-1.2,1.7-3,3-5.4s2-3.6,2.1-3.8l-0.2-0.2l-7.4,0c-0.6,0-1.2,0.1-1.6,0.3c-0.5,0.2-0.9,0.4-1.3,0.8
					c-0.4,0.4-0.7,0.7-0.9,1.1c-0.3,0.4-0.5,0.9-0.9,1.6l-0.5-0.3l1.2-4.6l0.3-0.2l14.6,0.3l0.2,0.4c-0.2,0.3-0.7,1.1-1.5,2.4
					c-0.7,1.2-1.4,2.5-2.3,3.9c-0.8,1.4-1.7,2.9-2.6,4.4l-2.6,4.6c-0.6,1.1-2.1,3.5-4.4,7.2l8.4-0.4c0.8,0,1.5-0.1,2.1-0.3
					c0.6-0.2,1.1-0.4,1.5-0.8c0.4-0.3,0.7-0.7,1-1.1c0.3-0.4,0.6-0.9,0.9-1.5l0.5,0.2l-1.6,4.6L489.9,335.9z"/>
				<path fill="#D8AE4C" d="M513.3,314.8c0.4-0.2,0.9-0.6,1.4-1.2l0.2,0l6.3,22.9c0.3,1,1,1.8,2.2,2.4l0,0.3
					c-0.7-0.2-1.6-0.3-2.6-0.4c-1-0.1-1.9-0.1-2.7-0.1l-0.1-0.2c0.3-0.3,0.4-0.7,0.3-1.4c0-0.7-0.2-1.7-0.6-3.2l-1.9-7.1
					c-3.2-0.5-5.9-0.8-8-1l-4.9,8.3c-0.3,0.5-0.3,0.9,0.1,1.3c0.4,0.4,1.1,0.8,2.2,1.1l-0.1,0.3c-1.9-0.4-3.4-0.6-4.6-0.7
					c-0.1-0.1-0.1-0.2-0.2-0.4L513.3,314.8z M508.5,325.1c1.6,0.2,4,0.5,7.1,0.9l-2.4-9L508.5,325.1z"/>
				<path fill="#D8AE4C" d="M559.1,325.9l-4.7,14.9c-0.3,0.8-0.6,1.5-1,2.2c-0.4,0.7-0.8,1.2-1.2,1.6c-0.4,0.4-0.8,0.7-1.2,1
					c-0.4,0.3-0.7,0.5-1,0.6c-0.2,0.1-0.4,0.2-0.6,0.2c-0.3,0.1-0.9,0-1.6-0.3c-1.4-0.4-2.6-1.2-3.6-2.3c0.6-0.6,1.5-1.1,2.6-1.4
					l0.2,0.2c0.3,1.4,1,2.2,1.9,2.5c0.2,0.1,0.4,0.1,0.5,0c0.2-0.1,0.3-0.2,0.5-0.5c0.2-0.2,0.4-0.6,0.6-0.9
					c0.2-0.4,0.4-0.9,0.7-1.6c0.3-0.7,0.5-1.4,0.8-2.2c0.3-0.8,0.6-1.8,1-3l2.8-9c0.4-1.4,0.6-2.4,0.4-3c-0.1-0.6-0.7-1.1-1.6-1.4
					l-0.5-0.1l0-0.3c1.9,0,3.6,0.3,5,0.7C559.4,324.6,559.3,325.2,559.1,325.9z"/>
				<path fill="#D8AE4C" d="M580.3,333c0.4-0.1,1-0.3,1.7-0.7l0.2,0.1l-0.5,23.8c0,1.1,0.5,2,1.5,2.9l-0.1,0.3
					c-0.6-0.4-1.4-0.7-2.3-1.1c-0.9-0.4-1.8-0.6-2.5-0.8l-0.1-0.2c0.3-0.2,0.6-0.6,0.7-1.3c0.2-0.7,0.3-1.7,0.3-3.2l0.2-7.4
					c-2.9-1.4-5.4-2.4-7.4-3.2l-7.1,6.6c-0.4,0.4-0.5,0.8-0.3,1.3c0.2,0.5,0.8,1.1,1.8,1.7l-0.2,0.2c-1.7-0.9-3.1-1.6-4.3-2
					c0-0.1-0.1-0.2-0.1-0.4L580.3,333z M572.7,341.5c1.4,0.7,3.6,1.6,6.6,2.9l0.3-9.3L572.7,341.5z"/>
				<path fill="#D8AE4C" d="M606.1,347.1l-9.9,16.3c-0.5,0.8-0.6,1.4-0.5,2c0.1,0.5,0.5,1.2,1.3,1.8l-0.3,0.3
					c-1-0.8-1.7-1.3-2.3-1.7s-1.3-0.7-2.2-1l0-0.2c0.4-0.2,0.8-0.6,1.2-1.3l9.1-14.8c0.8-1.3,1.2-2.3,1.2-3c0-0.7-0.6-1.3-1.7-1.8
					l0.1-0.3c1.8,0.5,3.4,1.2,4.8,2C606.7,345.9,606.5,346.5,606.1,347.1z M616.6,352.1l-12.3,3.2l-0.1,0.2l2.5,14.3
					c0.4,1.9,1,3.4,1.9,4.6l-0.2,0.3c-0.6-0.5-1.1-0.8-1.4-1c-0.3-0.2-0.7-0.5-1.3-0.7c-0.5-0.3-1-0.5-1.5-0.6l-0.1-0.2
					c0.1-0.2,0.2-0.5,0.1-1l-2.6-15.8l0.2-0.3l12.4-3.2c0.3-0.1,0.3-0.4-0.2-0.9c-0.4-0.4-0.9-0.8-1.5-1.1l0.1-0.4
					c1.7,0.8,3.1,1.6,4.1,2.3C616.9,351.8,616.8,351.9,616.6,352.1z"/>
				<path fill="#D8AE4C" d="M639.6,367.3c2.8,2.3,4.3,5,4.3,8.1c0,3.1-1.2,6.2-3.9,9.3c-1.1,1.3-2.4,2.4-3.8,3.2
					c-1.5,0.8-2.9,1.3-4.4,1.4c-1.5,0.2-3,0-4.5-0.4c-1.5-0.4-2.8-1.1-4-2.1c-1.3-1-2.2-2.2-3-3.6c-0.7-1.3-1.1-2.7-1.2-4.2
					c-0.1-1.5,0.1-3,0.7-4.7c0.6-1.6,1.5-3.2,2.8-4.7c1.1-1.4,2.4-2.4,3.9-3.2c1.5-0.8,3-1.3,4.5-1.5c1.5-0.2,3-0.1,4.5,0.3
					C637.1,365.6,638.4,366.3,639.6,367.3z M624.9,371.3c-1,1.3-1.8,2.5-2.4,3.8c-0.6,1.3-1,2.4-1.1,3.5c-0.1,1.1-0.1,2.1,0.1,3.1
					c0.2,1,0.5,1.9,1,2.7c0.5,0.8,1.1,1.5,1.8,2.1c1,0.9,2.2,1.4,3.4,1.6s2.4,0.2,3.6-0.2s2.3-1,3.4-1.8c1.1-0.8,2.2-1.8,3.1-3
					c1.3-1.5,2.2-3.1,2.9-4.6c0.6-1.6,0.9-3,0.9-4.3c0-1.3-0.3-2.5-0.8-3.6c-0.5-1.1-1.2-2-2.1-2.8c-1-0.9-2.2-1.4-3.4-1.6
					c-1.2-0.2-2.5-0.1-3.7,0.3c-1.2,0.4-2.4,1-3.5,1.8C626.9,369.1,625.9,370.1,624.9,371.3z"/>
				<path fill="#D8AE4C" d="M643,402.3c0.4,1.3,1,2.4,1.8,3.3c0.5,0.5,1,0.9,1.6,1.2c0.6,0.3,1.2,0.5,1.8,0.5c0.6,0,1.2-0.1,1.9-0.3
					c0.6-0.2,1.3-0.7,1.9-1.2c0.5-0.4,0.8-0.8,1.1-1.3c0.3-0.4,0.4-0.9,0.5-1.5c0.1-0.6,0.1-1.3,0-2.1c-0.1-0.8-0.2-1.9-0.5-3.2
					c-0.4-2.1-0.4-3.7-0.2-5c0.2-1.3,0.7-2.3,1.5-3.1c0.8-0.7,1.6-1.2,2.5-1.4c0.9-0.2,1.8-0.2,2.7-0.1c0.9,0.2,1.7,0.5,2.6,1
					c0.8,0.5,1.5,1.1,2.2,1.8c1.1,1.2,1.9,2.6,2.2,4.1c-1.5,0.9-3,1.7-4.8,2.2l-0.1-0.5c0.4-0.2,0.7-0.5,1-0.7
					c0.3-0.2,0.6-0.5,0.8-0.7c0.2-0.2,0.5-0.5,0.6-0.7c0.2-0.2,0.3-0.4,0.5-0.6c-0.2-1-0.7-1.9-1.4-2.6c-0.4-0.5-0.9-0.9-1.5-1.1
					c-0.5-0.3-1.1-0.5-1.7-0.5c-0.6-0.1-1.2,0-1.7,0.2c-0.6,0.2-1.1,0.5-1.6,1c-0.4,0.3-0.6,0.7-0.8,1.1c-0.2,0.4-0.3,0.9-0.4,1.5
					c-0.1,0.6-0.1,1.2,0,1.9s0.1,1.6,0.2,2.5c0.1,0.6,0.1,1.1,0.2,1.5c0.1,0.5,0.1,0.9,0.2,1.3c0.1,0.4,0.1,0.8,0.1,1.2
					c0,0.4,0,0.7,0,1.1c-0.1,1.8-0.8,3.2-2.1,4.4c-0.8,0.8-1.7,1.3-2.6,1.6c-0.9,0.3-1.8,0.3-2.6,0.2c-0.9-0.2-1.7-0.5-2.5-1
					c-0.8-0.5-1.6-1.1-2.3-1.9c-1.3-1.4-2.3-3-3.1-5c1.5-1,3.1-1.7,4.8-2.2l0.1,0.5c-0.5,0.3-1.1,0.8-1.8,1.4
					C643.5,401.7,643.1,402.1,643,402.3z"/>
				<path fill="#D8AE4C" d="M685.2,421c-0.3-2-1-3.7-2-5.1c-0.8-1.1-1.7-2-2.7-2.7c-1-0.6-2.1-1-3.4-1.1c-1.2-0.1-2.6,0.1-4,0.7
					c-1.5,0.5-3,1.4-4.7,2.6c-0.9,0.6-1.6,1.3-2.3,2c-0.7,0.7-1.2,1.5-1.7,2.3c-0.5,0.8-0.8,1.6-1,2.5c-0.2,0.9-0.3,1.7-0.3,2.6
					c0,0.9,0.2,1.7,0.4,2.6c0.3,0.9,0.7,1.7,1.3,2.4c0.4,0.6,0.8,1.1,1.2,1.5c0.4,0.4,0.8,0.8,1.2,1.1s0.9,0.6,1.5,0.8
					c0.5,0.2,1.2,0.4,1.9,0.6l-0.2,1c-0.8-0.2-1.5-0.5-2.1-0.8c-0.6-0.3-1.2-0.6-1.8-1c-0.5-0.4-1.1-0.8-1.5-1.4
					c-0.5-0.5-1-1.1-1.5-1.8c-1-1.4-1.6-2.8-2-4.3c-0.3-1.5-0.4-3-0.1-4.5c0.3-1.5,0.9-2.9,1.8-4.3c0.9-1.4,2.2-2.6,3.7-3.8
					c1.6-1.1,3.2-1.9,4.9-2.3c1.7-0.4,3.3-0.4,4.8-0.2c1.6,0.3,3,0.9,4.4,1.8c1.4,0.9,2.6,2.1,3.6,3.6c1.3,1.8,2.1,3.9,2.4,6.3
					c-1.7,0.8-3.3,1.3-5,1.6l-0.1-0.5c0.7-0.4,1.4-0.8,2.1-1.2C684.6,421.6,685,421.3,685.2,421z"/>
			</g>
		</g>
		<g>
			<path fill="#D8AE4C" d="M662.2,390.3l3.6-3c0.7-0.6,1.1-1,1.2-1.4c0.1-0.4-0.1-0.8-0.6-1.3l0.1-0.1c0.9,0.6,1.6,1.3,2.2,2
				c-0.2,0.3-0.4,0.6-0.7,0.8l-4.6,3.8"/>
		</g>
		<g>
			<path fill="#D8AE4C" d="M682.8,414.6l3.9-2.6c0.7-0.5,1.2-0.9,1.3-1.3c0.1-0.3,0-0.8-0.4-1.3l0.1-0.1c0.8,0.7,1.5,1.4,2,2.2
				c-0.2,0.3-0.5,0.5-0.8,0.8l-5,3.3"/>
		</g>
	</g>
</g>
</svg>
