<?xml version="1.0" standalone="no"?>
<!DOCTYPE svg PUBLIC "-//W3C//DTD SVG 20010904//EN"
 "http://www.w3.org/TR/2001/REC-SVG-20010904/DTD/svg10.dtd">
<svg version="1.0" xmlns="http://www.w3.org/2000/svg"
 width="128.000000pt" height="128.000000pt" viewBox="0 0 128.000000 128.000000"
 preserveAspectRatio="xMidYMid meet">

<g transform="translate(0.000000,128.000000) scale(0.100000,-0.100000)"
fill="#000000" stroke="none">
<path d="M177 1267 c-10 -6 -21 -26 -25 -42 -7 -26 -14 -30 -47 -33 -47 -4
-80 -25 -94 -60 -8 -20 -11 -156 -9 -465 l3 -437 27 -27 c23 -23 38 -28 93
-31 55 -4 65 -7 65 -23 0 -10 -9 -23 -20 -29 -15 -8 -20 -21 -20 -53 0 -24 5
-48 12 -55 17 -17 939 -17 956 0 7 7 12 31 12 55 0 32 -5 45 -20 53 -11 6 -20
19 -20 29 0 16 10 19 65 23 55 3 70 8 93 31 l27 27 3 437 c2 309 -1 445 -9
465 -14 35 -47 56 -94 60 -33 3 -40 7 -47 33 -15 58 -72 73 -107 29 -12 -15
-21 -35 -21 -45 0 -15 -8 -19 -40 -19 -32 0 -40 4 -40 19 0 10 -9 30 -21 45
-35 44 -92 29 -107 -29 -8 -27 -13 -30 -48 -30 -35 0 -39 3 -44 30 -3 18 -15
35 -33 45 -24 13 -30 13 -54 0 -18 -10 -30 -27 -33 -45 -5 -27 -9 -30 -44 -30
-35 0 -40 3 -48 30 -15 58 -72 73 -107 29 -12 -15 -21 -35 -21 -45 0 -15 -8
-19 -40 -19 -32 0 -40 4 -40 19 0 28 -39 71 -64 71 -12 0 -30 -6 -39 -13z m51
-96 c3 -56 1 -62 -15 -59 -14 2 -19 14 -21 52 -4 56 3 79 21 74 7 -3 13 -28
15 -67z m217 3 c0 -48 -3 -59 -17 -62 -16 -3 -18 5 -18 56 0 32 3 62 7 66 17
17 28 -5 28 -60z m210 0 c0 -46 -3 -59 -15 -59 -11 0 -16 13 -18 49 -4 56 3
79 21 73 8 -2 12 -24 12 -63z m213 -3 c3 -56 1 -62 -15 -59 -14 2 -19 14 -21
52 -4 56 3 79 21 74 7 -3 13 -28 15 -67z m217 3 c0 -48 -3 -59 -17 -62 -16 -3
-18 5 -18 56 0 32 3 62 7 66 17 17 28 -5 28 -60z m-935 -46 c0 -31 29 -58 62
-58 33 0 68 31 68 60 0 17 7 20 40 20 33 0 40 -3 40 -20 0 -29 36 -60 69 -60
32 0 61 30 61 62 0 15 9 18 45 18 40 0 45 -3 45 -22 0 -12 7 -30 17 -40 33
-37 103 -11 103 39 0 21 4 23 45 23 40 0 45 -3 45 -22 0 -31 29 -58 62 -58 33
0 68 31 68 60 0 17 7 20 40 20 33 0 40 -3 40 -20 0 -29 36 -60 69 -60 32 0 61
30 61 62 0 14 8 18 33 18 52 0 70 -20 71 -76 l1 -49 -595 0 -595 0 1 49 c1 56
19 76 71 76 27 0 33 -4 33 -22z m1090 -508 l0 -361 -25 -24 c-19 -20 -34 -25
-75 -25 l-50 0 0 60 c0 34 -7 74 -15 89 -14 28 -58 51 -96 51 -17 0 -19 9 -19
76 0 70 -2 78 -29 105 -22 21 -39 29 -65 29 -35 0 -36 1 -36 40 0 27 7 47 21
61 17 17 20 30 16 66 -9 81 -62 109 -97 51 -26 -43 -26 -90 0 -113 14 -13 20
-31 20 -62 l0 -43 -65 0 -65 0 0 53 c0 42 5 58 21 73 17 15 20 27 16 62 -12
107 -102 107 -114 0 -4 -35 -1 -47 16 -62 16 -15 21 -31 21 -73 l0 -53 -65 0
-65 0 0 43 c0 30 6 48 20 60 26 22 26 72 0 115 -35 58 -88 30 -97 -52 -5 -36
-2 -47 16 -62 15 -14 21 -30 21 -61 0 -43 0 -43 -36 -43 -26 0 -43 -8 -65 -29
-27 -27 -29 -35 -29 -105 0 -67 -2 -76 -19 -76 -38 0 -82 -23 -96 -51 -8 -15
-15 -55 -15 -89 l0 -60 -50 0 c-41 0 -56 5 -75 25 l-25 24 0 361 0 360 600 0
600 0 0 -360z m-584 194 c8 -30 -10 -54 -27 -37 -13 13 -4 63 11 63 5 0 13
-12 16 -26z m-170 -18 c7 -29 -1 -46 -22 -46 -14 0 -19 26 -8 54 9 23 23 19
30 -8z m338 8 c11 -28 6 -54 -8 -54 -21 0 -29 17 -22 46 7 27 21 31 30 8z m77
-243 c13 -11 22 -21 19 -23 -3 -2 -19 -13 -37 -26 -39 -27 -51 -27 -83 -2 -14
11 -40 20 -60 20 -20 0 -46 -9 -60 -20 -14 -11 -32 -20 -40 -20 -8 0 -26 9
-40 20 -14 11 -40 20 -60 20 -20 0 -46 -9 -60 -20 -32 -25 -44 -25 -83 2 -18
13 -34 24 -37 26 -3 2 6 12 19 23 21 18 42 19 261 19 219 0 240 -1 261 -19z
m-316 -91 c39 -26 67 -25 115 2 l38 23 40 -23 c46 -26 80 -28 108 -7 29 22 34
18 34 -20 l0 -35 -280 0 -280 0 0 35 c0 38 5 42 34 20 27 -21 65 -19 101 5 17
11 37 20 45 20 8 0 29 -9 45 -20z m453 -132 c2 -11 -11 -23 -44 -37 -58 -26
-80 -26 -135 -1 -56 25 -100 25 -149 0 -22 -11 -53 -20 -70 -20 -17 0 -48 9
-70 20 -22 11 -54 20 -72 20 -19 0 -51 -9 -73 -20 -50 -25 -81 -25 -139 0 -43
19 -56 37 -39 53 4 4 182 6 397 5 356 -3 391 -4 394 -20z m-483 -78 c53 -25
108 -25 172 2 l53 22 56 -23 c63 -27 120 -29 163 -7 48 25 51 22 51 -54 l0
-70 -410 0 -410 0 0 70 c0 76 3 79 52 54 42 -22 108 -20 154 5 49 25 69 25
119 1z m533 -197 l3 -23 -450 0 c-431 0 -451 1 -451 18 0 10 3 22 7 25 3 4
205 6 447 5 l441 -3 3 -22z"/>
</g>
</svg>
